<?xml version="1.0" encoding="utf-8"?>
<!-- Generator: Adobe Illustrator 16.0.0, SVG Export Plug-In . SVG Version: 6.00 Build 0)  -->
<!DOCTYPE svg PUBLIC "-//W3C//DTD SVG 1.1//EN" "http://www.w3.org/Graphics/SVG/1.1/DTD/svg11.dtd">
<svg version="1.1" id="Warstwa_1" xmlns="http://www.w3.org/2000/svg" xmlns:xlink="http://www.w3.org/1999/xlink" x="0px" y="0px"
	 width="42px" height="42px" viewBox="0 0 50 50" enable-background="new 0 0 50 50" xml:space="preserve">
<circle fill="none" stroke="#000000" stroke-width="1.2" stroke-miterlimit="10" cx="25" cy="25" r="22.072"/>
<g>
	<path d="M34.005,14.424c-0.355,0-0.644,0.288-0.644,0.644v24.366H16.639V15.068c0-0.355-0.288-0.644-0.644-0.644
		s-0.644,0.288-0.644,0.644v25.01c0,0.355,0.288,0.643,0.644,0.643h18.01c0.354,0,0.644-0.287,0.644-0.643v-25.01
		C34.648,14.712,34.359,14.424,34.005,14.424z"/>
	<path d="M20.498,35.648V17.64c0-0.355-0.287-0.643-0.643-0.643s-0.644,0.287-0.644,0.643v18.008c0,0.357,0.288,0.645,0.644,0.645
		S20.498,36.006,20.498,35.648z"/>
	<path d="M30.789,35.648V17.64c0-0.355-0.287-0.643-0.644-0.643c-0.355,0-0.644,0.287-0.644,0.643v18.008
		c0,0.357,0.288,0.645,0.644,0.645C30.502,36.293,30.789,36.006,30.789,35.648z"/>
	<path d="M25.644,35.648V18.927c0-0.355-0.287-0.644-0.644-0.644c-0.355,0-0.643,0.288-0.643,0.644v16.721
		c0,0.357,0.287,0.645,0.643,0.645C25.356,36.293,25.644,36.006,25.644,35.648z"/>
	<path d="M36.577,11.852h-8.738l-2.384-2.384c-0.251-0.251-0.658-0.251-0.91,0l-2.384,2.384h-8.737
		c-0.356,0-0.645,0.288-0.645,0.643c0,0.356,0.288,0.643,0.645,0.643h23.153c0.355,0,0.644-0.287,0.644-0.643
		C37.221,12.139,36.933,11.852,36.577,11.852z M23.98,11.852l1.02-1.02l1.021,1.02H23.98z"/>
</g>
</svg>
